<svg width="12" height="13" viewBox="0 0 12 13" fill="none" xmlns="http://www.w3.org/2000/svg">
<path d="M1.17975 2.74937H10.5131V3.99937H1.17975V2.74937ZM2.34641 0.25H9.34641V1.5H2.34641V0.25ZM10.509 5.24437H1.17916C1.02534 5.24478 0.873101 5.27765 0.731134 5.3411C0.589168 5.40455 0.460256 5.49734 0.351758 5.61416C0.24326 5.73099 0.157302 5.86957 0.0987911 6.02199C0.0402801 6.17441 0.0103623 6.33769 0.0107458 6.5025V11.4862C0.0103623 11.6511 0.0402801 11.8143 0.0987911 11.9668C0.157302 12.1192 0.24326 12.2578 0.351758 12.3746C0.460256 12.4914 0.589168 12.5842 0.731134 12.6476C0.873101 12.7111 1.02534 12.744 1.17916 12.7444H10.509C10.6628 12.744 10.8151 12.7111 10.957 12.6476C11.099 12.5842 11.2279 12.4914 11.3364 12.3746C11.4449 12.2578 11.5309 12.1192 11.5894 11.9668C11.6479 11.8143 11.6778 11.6511 11.6774 11.4862V6.5025C11.6778 6.33769 11.6479 6.17441 11.5894 6.02199C11.5309 5.86957 11.4449 5.73099 11.3364 5.61416C11.2279 5.49734 11.099 5.40455 10.957 5.3411C10.8151 5.27765 10.6628 5.24478 10.509 5.24437ZM10.5107 11.5H1.17741V6.5H10.5107V11.5Z" fill="#0017B7"/>
</svg>
