<svg width="15" height="15" viewBox="0 0 15 15" fill="none" xmlns="http://www.w3.org/2000/svg">
<path d="M3.17975 3.74937H12.5131V4.99937H3.17975V3.74937ZM4.34641 1.25H11.3464V2.5H4.34641V1.25ZM12.509 6.24437H3.17916C3.02534 6.24478 2.8731 6.27765 2.73113 6.3411C2.58917 6.40455 2.46026 6.49734 2.35176 6.61416C2.24326 6.73099 2.1573 6.86957 2.09879 7.02199C2.04028 7.17441 2.01036 7.33769 2.01075 7.5025V12.4862C2.01036 12.6511 2.04028 12.8143 2.09879 12.9668C2.1573 13.1192 2.24326 13.2578 2.35176 13.3746C2.46026 13.4914 2.58917 13.5842 2.73113 13.6476C2.8731 13.7111 3.02534 13.744 3.17916 13.7444H12.509C12.6628 13.744 12.8151 13.7111 12.957 13.6476C13.099 13.5842 13.2279 13.4914 13.3364 13.3746C13.4449 13.2578 13.5309 13.1192 13.5894 12.9668C13.6479 12.8143 13.6778 12.6511 13.6774 12.4862V7.5025C13.6778 7.33769 13.6479 7.17441 13.5894 7.02199C13.5309 6.86957 13.4449 6.73099 13.3364 6.61416C13.2279 6.49734 13.099 6.40455 12.957 6.3411C12.8151 6.27765 12.6628 6.24478 12.509 6.24437ZM12.5107 12.5H3.17741V7.5H12.5107V12.5Z" fill="#0017B7"/>
<path d="M7.2631 11.8691H8.42977V10.626H9.59644V9.37352H8.42977V8.11914H7.2631V9.37539H6.09644V10.626H7.2631V11.8691Z" fill="#0017B7"/>
</svg>
