<svg width="14" height="14" viewBox="0 0 14 14" fill="none" xmlns="http://www.w3.org/2000/svg">
<path d="M2.919 3.49938H12.2523V4.66604H2.919V3.49938ZM4.08567 1.16663H11.0857V2.33329H4.08567V1.16663ZM12.2483 5.82804H2.91842C2.7646 5.82842 2.61236 5.8591 2.47039 5.91832C2.32843 5.97754 2.19951 6.06414 2.09102 6.17318C1.98252 6.28222 1.89656 6.41156 1.83805 6.55382C1.77954 6.69608 1.74962 6.84847 1.75 7.00229V11.6538C1.74962 11.8076 1.77954 11.96 1.83805 12.1023C1.89656 12.2445 1.98252 12.3739 2.09102 12.4829C2.19951 12.5919 2.32843 12.6785 2.47039 12.7378C2.61236 12.797 2.7646 12.8277 2.91842 12.828H12.2483C12.4021 12.8277 12.5543 12.797 12.6963 12.7378C12.8382 12.6785 12.9672 12.5919 13.0757 12.4829C13.1842 12.3739 13.2701 12.2445 13.3286 12.1023C13.3871 11.96 13.4171 11.8076 13.4167 11.6538V7.00229C13.4171 6.84847 13.3871 6.69608 13.3286 6.55382C13.2701 6.41156 13.1842 6.28222 13.0757 6.17318C12.9672 6.06414 12.8382 5.97754 12.6963 5.91832C12.5543 5.8591 12.4021 5.82842 12.2483 5.82804ZM12.25 11.6666H2.91667V6.99996H12.25V11.6666Z" fill="black"/>
<path d="M7.0026 11.0781H8.16927V9.91788H9.33594V8.74888H8.16927V7.57812H7.0026V8.75063H5.83594V9.91788H7.0026V11.0781Z" fill="black"/>
</svg>
