<svg width="10" height="14" viewBox="0 0 10 14" fill="none" xmlns="http://www.w3.org/2000/svg">
<path d="M3.34115 4.37426V5.24926H4.17448V4.37426H3.34115ZM5.00781 1.74926H4.17448V2.62426H5.00781V1.74926ZM3.34115 2.62426V3.49926H4.17448V2.62426H3.34115ZM5.00781 3.49926H4.17448V4.37426H5.00781V3.49926ZM9.63281 2.67621L7.44792 0.382068C7.21354 0.135974 6.89583 -0.003479 6.5651 -0.003479H1.25C0.559896 -0.000744628 0 0.587146 0 1.31176V12.6868C0 13.4114 0.559896 13.9993 1.25 13.9993H8.75C9.4401 13.9993 10 13.4114 10 12.6868V3.6059C10 3.25863 9.86719 2.9223 9.63281 2.67621ZM6.66667 1.4184L8.64844 3.49926H6.66667V1.4184ZM8.75 12.6868H1.25V1.31176H3.32552V1.74926H4.15885V1.31176H5.41667V4.15551C5.41667 4.51918 5.69531 4.81176 6.04167 4.81176H8.75V12.6868ZM5.05729 7.26449C5.02865 7.11137 4.90104 6.99926 4.75 6.99926H4.17448V6.12426H3.34115V6.99926L2.82812 9.65434C2.65625 10.543 3.30208 11.3743 4.16667 11.3743C5.02865 11.3743 5.67448 10.5485 5.50781 9.66254L5.05729 7.26449ZM4.17448 10.6661C3.70833 10.6661 3.33073 10.3352 3.33073 9.92777C3.33073 9.52035 3.70833 9.18949 4.17448 9.18949C4.64062 9.18949 5.01823 9.52035 5.01823 9.92777C5.01823 10.3352 4.64062 10.6661 4.17448 10.6661ZM5.00781 5.24926H4.17448V6.12426H5.00781V5.24926Z" fill="black"/>
</svg>
