<svg width="250" height="250" viewBox="0 0 250 250" fill="none" xmlns="http://www.w3.org/2000/svg">
<circle cx="125" cy="125" r="125" fill="#D9D9D9"/>
<circle cx="218" cy="195" r="20" fill="#DC2626"/>
<path d="M215 185L213.17 187H210C208.9 187 208 187.9 208 189V201C208 202.1 208.9 203 210 203H226C227.1 203 228 202.1 228 201V189C228 187.9 227.1 187 226 187H222.83L221 185H215ZM218 200C215.24 200 213 197.76 213 195C213 192.24 215.24 190 218 190C220.76 190 223 192.24 223 195C223 197.76 220.76 200 218 200Z" fill="white"/>
<path d="M218.2 198.4C219.967 198.4 221.4 196.967 221.4 195.2C221.4 193.433 219.967 192 218.2 192C216.433 192 215 193.433 215 195.2C215 196.967 216.433 198.4 218.2 198.4Z" fill="white"/>
<path d="M125 127C83.56 127 69 148 69 162V183H181V162C181 148 166.44 127 125 127Z" fill="#F4F4F4"/>
<path d="M125 120C142.397 120 156.5 105.897 156.5 88.5C156.5 71.103 142.397 57 125 57C107.603 57 93.5 71.103 93.5 88.5C93.5 105.897 107.603 120 125 120Z" fill="#F4F4F4"/>
</svg>
