<svg width="39" height="40" viewBox="0 0 39 40" fill="none" xmlns="http://www.w3.org/2000/svg">
<rect width="39" height="40" rx="10" fill="#3C52EE"/>
<path d="M28.9876 26.1906L28.7704 26.0072C28.1541 25.482 27.6147 24.8798 27.1668 24.2167C26.6775 23.3016 26.3843 22.3022 26.3043 21.2772V18.2583C26.3085 16.6484 25.698 15.0925 24.5874 13.8828C23.4769 12.6731 21.9427 11.8929 20.2732 11.6889V10.9006C20.2732 10.6842 20.1833 10.4767 20.0234 10.3237C19.8634 10.1707 19.6465 10.0847 19.4203 10.0847C19.1941 10.0847 18.9771 10.1707 18.8172 10.3237C18.6572 10.4767 18.5673 10.6842 18.5673 10.9006V11.7011C16.9128 11.9198 15.3972 12.7047 14.3012 13.9103C13.2052 15.116 12.6031 16.6607 12.6065 18.2583V21.2772C12.5265 22.3022 12.2333 23.3016 11.744 24.2167C11.3037 24.8781 10.773 25.4803 10.166 26.0072L9.94873 26.1906V27.9139H28.9876V26.1906Z" fill="white"/>
<path d="M17.7876 28.5556C17.8436 28.9429 18.0443 29.2978 18.3526 29.5547C18.6608 29.8116 19.0558 29.9531 19.4647 29.9531C19.8735 29.9531 20.2685 29.8116 20.5768 29.5547C20.8851 29.2978 21.0857 28.9429 21.1418 28.5556H17.7876Z" fill="white"/>
</svg>
