<svg width="12" height="15" viewBox="0 0 12 15" fill="none" xmlns="http://www.w3.org/2000/svg">
<path d="M7.33 0.416687C7.57486 0.416764 7.81349 0.510389 8.0121 0.684301C8.2107 0.858212 8.35921 1.10359 8.43658 1.38569L8.75333 2.54169H10.6667C10.8214 2.54169 10.9697 2.61631 11.0791 2.74915C11.1885 2.88199 11.25 3.06216 11.25 3.25002C11.25 3.43788 11.1885 3.61805 11.0791 3.75089C10.9697 3.88373 10.8214 3.95835 10.6667 3.95835L10.6649 4.00865L10.1592 12.6099C10.1276 13.1459 9.93002 13.6474 9.60619 14.0135C9.28235 14.3797 8.85632 14.5833 8.41383 14.5834H3.58617C3.14368 14.5833 2.71765 14.3797 2.39381 14.0135C2.06998 13.6474 1.8724 13.1459 1.84083 12.6099L1.33508 4.00794C1.33403 3.99144 1.33344 3.9749 1.33333 3.95835C1.17862 3.95835 1.03025 3.88373 0.920854 3.75089C0.811458 3.61805 0.75 3.43788 0.75 3.25002C0.75 3.06216 0.811458 2.88199 0.920854 2.74915C1.03025 2.61631 1.17862 2.54169 1.33333 2.54169H3.24667L3.56342 1.38569C3.64082 1.10348 3.78942 0.858015 3.98814 0.684094C4.18686 0.510172 4.42562 0.416615 4.67058 0.416687H7.33ZM9.49825 3.95835H2.50175L3.00458 12.5086C3.01505 12.6873 3.08087 12.8545 3.18878 12.9766C3.29668 13.0987 3.43867 13.1666 3.58617 13.1667H8.41383C8.56133 13.1666 8.70332 13.0987 8.81122 12.9766C8.91913 12.8545 8.98494 12.6873 8.99542 12.5086L9.49825 3.95835ZM4.83333 6.08335C4.97621 6.08338 5.11411 6.14707 5.22088 6.26236C5.32765 6.37765 5.39587 6.53651 5.41258 6.70881L5.41667 6.79169V10.3334C5.4165 10.5139 5.35957 10.6875 5.2575 10.8188C5.15544 10.9501 5.01594 11.0291 4.86752 11.0397C4.7191 11.0503 4.57295 10.9916 4.45893 10.8757C4.34492 10.7599 4.27164 10.5955 4.25408 10.4162L4.25 10.3334V6.79169C4.25 6.60382 4.31146 6.42366 4.42085 6.29082C4.53025 6.15798 4.67862 6.08335 4.83333 6.08335ZM7.16667 6.08335C7.32138 6.08335 7.46975 6.15798 7.57915 6.29082C7.68854 6.42366 7.75 6.60382 7.75 6.79169V10.3334C7.75 10.5212 7.68854 10.7014 7.57915 10.8342C7.46975 10.9671 7.32138 11.0417 7.16667 11.0417C7.01196 11.0417 6.86358 10.9671 6.75419 10.8342C6.64479 10.7014 6.58333 10.5212 6.58333 10.3334V6.79169C6.58333 6.60382 6.64479 6.42366 6.75419 6.29082C6.86358 6.15798 7.01196 6.08335 7.16667 6.08335ZM7.33 1.83335H4.67L4.47575 2.54169H7.52425L7.33 1.83335Z" fill="#DC2626"/>
</svg>
