<svg width="34" height="31" viewBox="0 0 34 31" fill="none" xmlns="http://www.w3.org/2000/svg">
<path d="M5.54527 4.5625C5.54527 3.40218 6.03037 2.28938 6.89385 1.46891C7.75734 0.648436 8.92847 0.1875 10.1496 0.1875C11.3708 0.1875 12.5419 0.648436 13.4054 1.46891C14.2689 2.28938 14.754 3.40218 14.754 4.5625C14.754 5.72282 14.2689 6.83562 13.4054 7.65609C12.5419 8.47656 11.3708 8.9375 10.1496 8.9375C8.92847 8.9375 7.75734 8.47656 6.89385 7.65609C6.03037 6.83562 5.54527 5.72282 5.54527 4.5625ZM21.1517 8.0275L21.2484 8.0975C22.2252 8.78548 23.4487 9.07841 24.652 8.91237C25.8553 8.74632 26.9406 8.13478 27.671 7.2112C28.4015 6.28762 28.7179 5.12699 28.5511 3.98259C28.3843 2.8382 27.7479 1.80295 26.7807 1.10278C25.8135 0.402602 24.5942 0.0943488 23.3887 0.245287C22.1833 0.396226 21.0896 0.994102 20.3463 1.90844C19.6031 2.82278 19.2706 3.97934 19.4215 5.12573C19.5724 6.27212 20.1944 7.31526 21.1517 8.0275ZM13.0688 11.125C13.3579 10.6047 13.7546 10.1452 14.2349 9.77398C14.7153 9.40273 15.2696 9.12736 15.8645 8.96434C16.4595 8.80132 17.0829 8.754 17.6976 8.82522C18.3122 8.89644 18.9055 9.08473 19.4418 9.37882C19.9781 9.67291 20.4464 10.0668 20.8188 10.5368C21.1912 11.0069 21.46 11.5435 21.6091 12.1145C21.7582 12.6856 21.7846 13.2793 21.6866 13.8603C21.5886 14.4412 21.3683 14.9974 21.0389 15.4956C20.4052 16.454 19.4052 17.1418 18.249 17.4143C17.0928 17.6869 15.8705 17.5231 14.8388 16.9573C13.807 16.3915 13.0462 15.4678 12.7162 14.3802C12.3861 13.2927 12.5125 12.1259 13.0688 11.125ZM4.39418 11.125H10.541C10.1318 12.2353 10.0429 13.4294 10.2833 14.5834C10.5238 15.7373 11.0849 16.8091 11.9085 17.6875H11.3007C10.1138 17.6873 8.95583 18.0357 7.98531 18.685C7.01479 19.3342 6.27915 20.2526 5.87909 21.3144C5.10632 21.0194 4.38278 20.6193 3.73116 20.1266C1.99992 18.8031 0.940918 16.8475 0.940918 14.4062C0.940918 13.536 1.30474 12.7014 1.95236 12.0861C2.59997 11.4707 3.47832 11.125 4.39418 11.125ZM22.8116 17.6875C23.9982 17.6875 25.1558 18.0359 26.1259 18.6852C27.0961 19.3345 27.8313 20.2528 28.2309 21.3144C29.0137 21.0103 29.7388 20.6144 30.3811 20.1266C32.1124 18.8031 33.1714 16.8475 33.1714 14.4062C33.1714 13.536 32.8076 12.7014 32.1599 12.0861C31.5123 11.4707 30.634 11.125 29.7181 11.125H23.5713C23.8245 11.8097 23.9627 12.5469 23.9627 13.3125C23.9648 14.9271 23.3383 16.4854 22.2038 17.6875H22.8116ZM26.0047 21.905C26.1728 22.29 26.2649 22.7144 26.2649 23.1562C26.2649 25.5975 25.2082 27.5531 23.4746 28.8766C21.7687 30.1781 19.4803 30.8125 17.0562 30.8125C14.632 30.8125 12.3436 30.1781 10.6377 28.8766C8.90645 27.5531 7.84745 25.5975 7.84745 23.1562C7.84623 22.725 7.93472 22.2978 8.10784 21.8992C8.28095 21.5006 8.53527 21.1384 8.85617 20.8335C9.17708 20.5286 9.55825 20.2869 9.97777 20.1224C10.3973 19.9579 10.8469 19.8738 11.3007 19.875H22.8116C23.4956 19.8749 24.1642 20.0677 24.7327 20.4291C25.3012 20.7905 25.7439 21.3042 26.0047 21.905Z" fill="#3C52EE" fill-opacity="0.78"/>
</svg>
