<svg width="18" height="18" viewBox="0 0 18 18" fill="none" xmlns="http://www.w3.org/2000/svg">
<path d="M10 5V1C10 0.71667 10.096 0.479003 10.288 0.287003C10.48 0.0950034 10.7173 -0.000663206 11 3.46021e-06H17C17.2833 3.46021e-06 17.521 0.0960036 17.713 0.288004C17.905 0.480004 18.0007 0.717337 18 1V5C18 5.28334 17.904 5.521 17.712 5.713C17.52 5.905 17.2827 6.00067 17 6H11C10.7167 6 10.479 5.904 10.287 5.712C10.095 5.52 9.99934 5.28267 10 5ZM3.46021e-06 9V1C3.46021e-06 0.71667 0.0960036 0.479003 0.288004 0.287003C0.480004 0.0950034 0.717337 -0.000663206 1 3.46021e-06H7C7.28334 3.46021e-06 7.521 0.0960036 7.713 0.288004C7.905 0.480004 8.00067 0.717337 8 1V9C8 9.28334 7.904 9.521 7.712 9.713C7.52 9.905 7.28267 10.0007 7 10H1C0.71667 10 0.479003 9.904 0.287003 9.712C0.0950034 9.52 -0.000663206 9.28267 3.46021e-06 9ZM10 17V9C10 8.71667 10.096 8.479 10.288 8.287C10.48 8.095 10.7173 7.99934 11 8H17C17.2833 8 17.521 8.096 17.713 8.288C17.905 8.48 18.0007 8.71734 18 9V17C18 17.2833 17.904 17.521 17.712 17.713C17.52 17.905 17.2827 18.0007 17 18H11C10.7167 18 10.479 17.904 10.287 17.712C10.095 17.52 9.99934 17.2827 10 17ZM3.46021e-06 17V13C3.46021e-06 12.7167 0.0960036 12.479 0.288004 12.287C0.480004 12.095 0.717337 11.9993 1 12H7C7.28334 12 7.521 12.096 7.713 12.288C7.905 12.48 8.00067 12.7173 8 13V17C8 17.2833 7.904 17.521 7.712 17.713C7.52 17.905 7.28267 18.0007 7 18H1C0.71667 18 0.479003 17.904 0.287003 17.712C0.0950034 17.52 -0.000663206 17.2827 3.46021e-06 17Z" fill="#161616"/>
</svg>
