<svg width="14" height="14" viewBox="0 0 14 14" fill="none" xmlns="http://www.w3.org/2000/svg">
<path d="M7 0C8.85651 0 10.637 0.737498 11.9497 2.05025C13.2625 3.36301 14 5.14348 14 7C14 8.85651 13.2625 10.637 11.9497 11.9497C10.637 13.2625 8.85651 14 7 14C5.14348 14 3.36301 13.2625 2.05025 11.9497C0.737498 10.637 0 8.85651 0 7C0 5.14348 0.737498 3.36301 2.05025 2.05025C3.36301 0.737498 5.14348 0 7 0ZM7 1.16667C6.23396 1.16667 5.47541 1.31755 4.76768 1.6107C4.05995 1.90386 3.41689 2.33354 2.87521 2.87521C1.78125 3.96917 1.16667 5.4529 1.16667 7C1.16667 8.4 1.6625 9.68333 2.485 10.6925L10.6925 2.485C9.65102 1.63201 8.34621 1.16615 7 1.16667ZM7 12.8333C8.5471 12.8333 10.0308 12.2188 11.1248 11.1248C12.2188 10.0308 12.8333 8.5471 12.8333 7C12.8333 5.6 12.3375 4.31667 11.515 3.3075L3.3075 11.515C4.34898 12.368 5.65379 12.8339 7 12.8333Z" fill="#DC2626"/>
</svg>
