<svg width="33" height="31" viewBox="0 0 33 31" fill="none" xmlns="http://www.w3.org/2000/svg">
<path d="M4.9375 4.5625C4.9375 3.40218 5.42478 2.28938 6.29213 1.46891C7.15949 0.648436 8.33587 0.1875 9.5625 0.1875C10.7891 0.1875 11.9655 0.648436 12.8329 1.46891C13.7002 2.28938 14.1875 3.40218 14.1875 4.5625C14.1875 5.72282 13.7002 6.83562 12.8329 7.65609C11.9655 8.47656 10.7891 8.9375 9.5625 8.9375C8.33587 8.9375 7.15949 8.47656 6.29213 7.65609C5.42478 6.83562 4.9375 5.72282 4.9375 4.5625ZM20.6139 8.0275L20.7111 8.0975C21.6922 8.78548 22.9213 9.07841 24.1299 8.91237C25.3386 8.74632 26.4287 8.13478 27.1625 7.2112C27.8963 6.28762 28.214 5.12699 28.0465 3.98259C27.8789 2.8382 27.2396 1.80295 26.2682 1.10278C25.2967 0.402602 24.0718 0.0943488 22.861 0.245287C21.6501 0.396226 20.5515 0.994102 19.8049 1.90844C19.0583 2.82278 18.7244 3.97934 18.876 5.12573C19.0275 6.27212 19.6523 7.31526 20.6139 8.0275ZM12.4948 11.125C12.7852 10.6047 13.1836 10.1452 13.6661 9.77398C14.1487 9.40273 14.7054 9.12736 15.303 8.96434C15.9007 8.80132 16.5269 8.754 17.1443 8.82522C17.7617 8.89644 18.3576 9.08473 18.8963 9.37882C19.435 9.67291 19.9055 10.0668 20.2795 10.5368C20.6536 11.0069 20.9236 11.5435 21.0734 12.1145C21.2232 12.6856 21.2496 13.2793 21.1512 13.8603C21.0528 14.4412 20.8315 14.9974 20.5006 15.4956C19.864 16.454 18.8596 17.1418 17.6982 17.4143C16.5368 17.6869 15.309 17.5231 14.2727 16.9573C13.2363 16.3915 12.4721 15.4678 12.1406 14.3802C11.809 13.2927 11.936 12.1259 12.4948 11.125ZM3.78125 11.125H9.95563C9.54463 12.2353 9.45527 13.4294 9.69681 14.5834C9.93836 15.7373 10.502 16.8091 11.3293 17.6875H10.7188C9.52651 17.6873 8.36335 18.0357 7.38848 18.685C6.41361 19.3342 5.67467 20.2526 5.27281 21.3144C4.49658 21.0194 3.7698 20.6193 3.11525 20.1266C1.37625 18.8031 0.3125 16.8475 0.3125 14.4062C0.3125 13.536 0.677957 12.7014 1.32847 12.0861C1.97899 11.4707 2.86128 11.125 3.78125 11.125ZM22.2812 17.6875C23.4732 17.6875 24.636 18.0359 25.6104 18.6852C26.5849 19.3345 27.3234 20.2528 27.7249 21.3144C28.5111 21.0103 29.2396 20.6144 29.8848 20.1266C31.6238 18.8031 32.6875 16.8475 32.6875 14.4062C32.6875 13.536 32.322 12.7014 31.6715 12.0861C31.021 11.4707 30.1387 11.125 29.2188 11.125H23.0444C23.2987 11.8097 23.4375 12.5469 23.4375 13.3125C23.4396 14.9271 22.8103 16.4854 21.6707 17.6875H22.2812ZM25.4887 21.905C25.6575 22.29 25.75 22.7144 25.75 23.1562C25.75 25.5975 24.6886 27.5531 22.9473 28.8766C21.2337 30.1781 18.9351 30.8125 16.5 30.8125C14.0649 30.8125 11.7663 30.1781 10.0527 28.8766C8.31375 27.5531 7.25 25.5975 7.25 23.1562C7.24878 22.725 7.33767 22.2978 7.51156 21.8992C7.68545 21.5006 7.94091 21.1384 8.26325 20.8335C8.5856 20.5286 8.96848 20.2869 9.38987 20.1224C9.81127 19.9579 10.2629 19.8738 10.7188 19.875H22.2812C22.9683 19.8749 23.6399 20.0677 24.211 20.4291C24.782 20.7905 25.2267 21.3042 25.4887 21.905Z" fill="#F4F4F4"/>
</svg>
