<svg width="13" height="14" viewBox="0 0 13 14" fill="none" xmlns="http://www.w3.org/2000/svg">
<path d="M0 8.37497C0 10.0653 1.555 11.7997 4.222 12.0847C3.93497 11.7525 3.69312 11.3881 3.502 11C1.882 10.5622 1 9.43247 1 8.37497V7.90622C1 7.7819 1.05268 7.66267 1.14645 7.57477C1.24021 7.48686 1.36739 7.43747 1.5 7.43747H3.207C3.306 7.11028 3.437 6.79716 3.6 6.49997H1.5C1.10218 6.49997 0.720645 6.64813 0.43934 6.91185C0.158035 7.17558 0 7.53326 0 7.90622V8.37497ZM7.75 2.98435C7.75 3.25153 7.707 3.50935 7.626 3.7531C7.14803 3.82435 6.68228 3.95487 6.241 4.14122C6.53824 3.86014 6.71706 3.48779 6.74451 3.09282C6.77196 2.69786 6.64618 2.30691 6.39036 1.99204C6.13454 1.67718 5.76592 1.45963 5.35248 1.3795C4.93903 1.29938 4.50862 1.36208 4.1406 1.55605C3.77259 1.75002 3.49177 2.06217 3.34993 2.43497C3.20809 2.80777 3.21479 3.21607 3.36879 3.5846C3.52279 3.95313 3.81371 4.25705 4.18791 4.44032C4.56211 4.62358 4.99438 4.67385 5.405 4.58185C5.00508 4.83727 4.64265 5.1408 4.327 5.48466C3.82736 5.36666 3.37311 5.11949 3.01599 4.7713C2.65886 4.4231 2.41322 3.98788 2.30705 3.5152C2.20087 3.04252 2.23842 2.55139 2.41542 2.09774C2.59242 1.6441 2.90176 1.24617 3.30821 0.949283C3.71465 0.652398 4.20186 0.468491 4.71434 0.418509C5.22683 0.368526 5.74398 0.454476 6.2069 0.666571C6.66983 0.878666 7.05991 1.20838 7.33273 1.61816C7.60554 2.02793 7.75012 2.5013 7.75 2.98435ZM4 8.84372C4 9.39774 4.1164 9.94633 4.34254 10.4582C4.56869 10.97 4.90016 11.4351 5.31802 11.8268C5.73588 12.2186 6.23196 12.5293 6.77793 12.7413C7.32389 12.9534 7.90905 13.0625 8.5 13.0625C9.09095 13.0625 9.67611 12.9534 10.2221 12.7413C10.768 12.5293 11.2641 12.2186 11.682 11.8268C12.0998 11.4351 12.4313 10.97 12.6575 10.4582C12.8836 9.94633 13 9.39774 13 8.84372C13 7.72484 12.5259 6.65178 11.682 5.86062C10.8381 5.06945 9.69347 4.62497 8.5 4.62497C7.30653 4.62497 6.16193 5.06945 5.31802 5.86062C4.47411 6.65178 4 7.72484 4 8.84372ZM10.5 6.03122C10.6326 6.03122 10.7598 6.08061 10.8536 6.16852C10.9473 6.25642 11 6.37565 11 6.49997V7.90622C11 8.03054 10.9473 8.14977 10.8536 8.23768C10.7598 8.32559 10.6326 8.37497 10.5 8.37497H9C8.86739 8.37497 8.74021 8.32559 8.64645 8.23768C8.55268 8.14977 8.5 8.03054 8.5 7.90622C8.5 7.7819 8.55268 7.66267 8.64645 7.57477C8.74021 7.48686 8.86739 7.43747 9 7.43747H9.468C9.18238 7.28841 8.86186 7.20789 8.535 7.2031C8.26634 7.19866 7.99948 7.24501 7.75035 7.3394C7.50122 7.43379 7.27493 7.57428 7.085 7.75247C6.99001 7.83433 6.86494 7.87858 6.73594 7.87599C6.60695 7.8734 6.48402 7.82416 6.39285 7.73857C6.30168 7.65298 6.24933 7.53766 6.24675 7.41673C6.24417 7.29579 6.29156 7.1786 6.379 7.08966C6.84592 6.6519 7.45386 6.3708 8.10855 6.28995C8.76323 6.2091 9.42808 6.33301 10 6.64247V6.49997C10 6.37565 10.0527 6.25642 10.1464 6.16852C10.2402 6.08061 10.3674 6.03122 10.5 6.03122ZM9.624 11.2175C9.2014 11.3775 8.74543 11.4452 8.29075 11.4153C7.83607 11.3854 7.39464 11.2588 7 11.045V11.1875C7 11.3118 6.94732 11.431 6.85355 11.5189C6.75979 11.6068 6.63261 11.6562 6.5 11.6562C6.36739 11.6562 6.24021 11.6068 6.14645 11.5189C6.05268 11.431 6 11.3118 6 11.1875V9.78122C6 9.6569 6.05268 9.53767 6.14645 9.44977C6.24021 9.36186 6.36739 9.31247 6.5 9.31247H8C8.13261 9.31247 8.25979 9.36186 8.35355 9.44977C8.44732 9.53767 8.5 9.6569 8.5 9.78122C8.5 9.90554 8.44732 10.0248 8.35355 10.1127C8.25979 10.2006 8.13261 10.25 8 10.25H7.532C7.81775 10.3987 8.13819 10.4792 8.465 10.4843C8.73366 10.4888 9.00053 10.4424 9.24965 10.348C9.49878 10.2537 9.72507 10.1132 9.915 9.93497C10.01 9.85312 10.1351 9.80886 10.2641 9.81145C10.3931 9.81404 10.516 9.86328 10.6072 9.94887C10.6983 10.0345 10.7507 10.1498 10.7532 10.2707C10.7558 10.3917 10.7084 10.5088 10.621 10.5978C10.336 10.865 9.997 11.0768 9.624 11.2175Z" fill="black"/>
</svg>
