<svg width="21" height="26" viewBox="0 0 21 26" fill="none" xmlns="http://www.w3.org/2000/svg">
<path d="M17.1927 15.5C17.5619 15.5 17.9276 15.5728 18.2688 15.7141C18.6099 15.8555 18.9199 16.0627 19.181 16.3238C19.442 16.585 19.6491 16.8951 19.7903 17.2363C19.9315 17.5775 20.0041 17.9432 20.0039 18.3125V19.0313C20.0039 20.1488 19.6039 21.23 18.8777 22.0788C16.9152 24.37 13.9314 25.5013 10.0002 25.5013C6.06766 25.5013 3.08516 24.37 1.12766 22.0763C0.402965 21.2281 0.00451381 20.1493 0.00390625 19.0338V18.3113C0.00390621 17.942 0.0766631 17.5763 0.21802 17.2351C0.359377 16.894 0.566563 16.584 0.827744 16.323C1.08893 16.0619 1.39898 15.8548 1.7402 15.7136C2.08142 15.5724 2.44712 15.4998 2.81641 15.5H17.1927ZM17.1927 17.375H2.81516C2.6921 17.375 2.57025 17.3993 2.45658 17.4464C2.34291 17.4935 2.23964 17.5626 2.15269 17.6497C2.06573 17.7367 1.99679 17.8401 1.94982 17.9538C1.90284 18.0676 1.87874 18.1895 1.87891 18.3125V19.0338C1.87891 19.7025 2.11891 20.35 2.55391 20.8588C4.12016 22.695 6.57766 23.6263 10.0002 23.6263C13.4227 23.6263 15.8827 22.695 17.4527 20.86C17.8885 20.3504 18.1279 19.7018 18.1277 19.0313V18.3113C18.1277 18.0632 18.0292 17.8252 17.8539 17.6497C17.6786 17.4741 17.4407 17.3753 17.1927 17.375ZM10.0002 0.506256C10.8209 0.506256 11.6336 0.667917 12.3919 0.982009C13.1502 1.2961 13.8392 1.75647 14.4196 2.33684C14.9999 2.9172 15.4603 3.6062 15.7744 4.36448C16.0885 5.12277 16.2502 5.93549 16.2502 6.75626C16.2502 7.57702 16.0885 8.38974 15.7744 9.14803C15.4603 9.90631 14.9999 10.5953 14.4196 11.1757C13.8392 11.756 13.1502 12.2164 12.3919 12.5305C11.6336 12.8446 10.8209 13.0063 10.0002 13.0063C8.34255 13.0063 6.75284 12.3478 5.58074 11.1757C4.40864 10.0036 3.75016 8.41386 3.75016 6.75626C3.75016 5.09865 4.40864 3.50894 5.58074 2.33684C6.75284 1.16474 8.34255 0.506256 10.0002 0.506256ZM10.0002 2.38126C9.42562 2.38126 8.85672 2.49442 8.32592 2.71428C7.79512 2.93415 7.31282 3.25641 6.90656 3.66266C6.50031 4.06892 6.17805 4.55122 5.95818 5.08202C5.73832 5.61282 5.62516 6.18172 5.62516 6.75626C5.62516 7.33079 5.73832 7.8997 5.95818 8.4305C6.17805 8.9613 6.50031 9.44359 6.90656 9.84985C7.31282 10.2561 7.79512 10.5784 8.32592 10.7982C8.85672 11.0181 9.42562 11.1313 10.0002 11.1313C11.1605 11.1313 12.2733 10.6703 13.0937 9.84985C13.9142 9.02938 14.3752 7.91658 14.3752 6.75626C14.3752 5.59593 13.9142 4.48314 13.0937 3.66266C12.2733 2.84219 11.1605 2.38126 10.0002 2.38126Z" fill="black"/>
</svg>
