<svg width="26" height="26" viewBox="0 0 26 26" fill="none" xmlns="http://www.w3.org/2000/svg">
<path d="M4.5 5.43752C4.5009 4.76318 4.64729 4.09696 4.92918 3.48435C5.21106 2.87175 5.62181 2.32717 6.13338 1.88781C6.64494 1.44844 7.24529 1.12462 7.89343 0.938451C8.54157 0.752285 9.22225 0.708157 9.88901 0.809077C10.5558 0.909997 11.1929 1.15359 11.7569 1.52323C12.3209 1.89287 12.7985 2.37985 13.1572 2.95093C13.5158 3.52201 13.747 4.16375 13.8349 4.83233C13.9229 5.50092 13.8656 6.18062 13.6669 6.82502C11.7427 7.41593 10.0332 8.55645 8.74875 10.1063C7.58631 9.99699 6.5065 9.45783 5.72067 8.59431C4.93483 7.73079 4.49954 6.60509 4.5 5.43752ZM9.1875 2.62502C8.44158 2.62502 7.72621 2.92134 7.19876 3.44879C6.67132 3.97623 6.375 4.6916 6.375 5.43752C6.375 6.18345 6.67132 6.89882 7.19876 7.42626C7.72621 7.95371 8.44158 8.25002 9.1875 8.25002C9.93342 8.25002 10.6488 7.95371 11.1762 7.42626C11.7037 6.89882 12 6.18345 12 5.43752C12 4.6916 11.7037 3.97623 11.1762 3.44879C10.6488 2.92134 9.93342 2.62502 9.1875 2.62502ZM16.6875 25.125C17.7955 25.125 18.8927 24.9068 19.9164 24.4828C20.9401 24.0587 21.8702 23.4372 22.6537 22.6537C23.4372 21.8702 24.0587 20.9401 24.4827 19.9164C24.9068 18.8927 25.125 17.7956 25.125 16.6875C25.125 15.5795 24.9068 14.4823 24.4827 13.4586C24.0587 12.4349 23.4372 11.5048 22.6537 10.7213C21.8702 9.93782 20.9401 9.31632 19.9164 8.89229C18.8927 8.46827 17.7955 8.25002 16.6875 8.25002C14.4497 8.25002 12.3036 9.13897 10.7213 10.7213C9.13895 12.3036 8.25 14.4498 8.25 16.6875C8.25 18.9253 9.13895 21.0714 10.7213 22.6537C12.3036 24.2361 14.4497 25.125 16.6875 25.125ZM21.1012 13.2113C21.1886 13.2984 21.2578 13.4018 21.3051 13.5157C21.3523 13.6296 21.3767 13.7517 21.3767 13.875C21.3767 13.9983 21.3523 14.1204 21.3051 14.2343C21.2578 14.3482 21.1886 14.4517 21.1012 14.5388L15.4762 20.1638C15.3892 20.2511 15.2857 20.3203 15.1718 20.3676C15.0579 20.4149 14.9358 20.4392 14.8125 20.4392C14.6892 20.4392 14.5671 20.4149 14.4532 20.3676C14.3393 20.3203 14.2358 20.2511 14.1488 20.1638L12.2738 18.2888C12.0977 18.1127 11.9988 17.874 11.9988 17.625C11.9988 17.3761 12.0977 17.1373 12.2738 16.9613C12.4498 16.7852 12.6885 16.6863 12.9375 16.6863C13.1865 16.6863 13.4252 16.7852 13.6012 16.9613L14.8125 18.1744L19.7738 13.2113C19.8608 13.124 19.9643 13.0547 20.0782 13.0074C20.1921 12.9602 20.3142 12.9358 20.4375 12.9358C20.5608 12.9358 20.6829 12.9602 20.7968 13.0074C20.9107 13.0547 21.0142 13.124 21.1012 13.2113ZM7.5 12H3.5625C2.01 12 0.75 13.7906 0.75 15.2813V15.75C0.75 18.9938 3.66375 22.575 8.6625 23.1656C8.12365 22.4984 7.67015 21.7665 7.3125 20.9869C4.15313 20.0438 2.625 17.5838 2.625 15.75V15.2813C2.625 15.0188 2.75625 14.6044 3.0375 14.2556C3.31875 13.9031 3.5325 13.875 3.5625 13.875H6.76312C6.94875 13.2206 7.19438 12.5944 7.5 12Z" fill="black"/>
</svg>
