<svg width="39" height="37" viewBox="0 0 39 37" fill="none" xmlns="http://www.w3.org/2000/svg">
<path d="M5.5 5.25C5.5 3.85761 6.07946 2.52226 7.11091 1.53769C8.14236 0.553123 9.54131 0 11 0C12.4587 0 13.8576 0.553123 14.8891 1.53769C15.9205 2.52226 16.5 3.85761 16.5 5.25C16.5 6.64239 15.9205 7.97775 14.8891 8.96231C13.8576 9.94688 12.4587 10.5 11 10.5C9.54131 10.5 8.14236 9.94688 7.11091 8.96231C6.07946 7.97775 5.5 6.64239 5.5 5.25ZM24.1423 9.408L24.2577 9.492C25.4246 10.3176 26.8861 10.6691 28.3234 10.4698C29.7607 10.2706 31.0572 9.53674 31.9297 8.42844C32.8023 7.32015 33.1802 5.92739 32.9809 4.55411C32.7817 3.18084 32.0215 1.93854 30.8662 1.09833C29.7109 0.258122 28.2543 -0.111781 26.8144 0.069345C25.3744 0.250471 24.068 0.967923 23.1802 2.06513C22.2923 3.16233 21.8952 4.55021 22.0755 5.92587C22.2557 7.30154 22.9987 8.55331 24.1423 9.408ZM14.487 13.125C14.8324 12.5007 15.3062 11.9493 15.88 11.5038C16.4538 11.0583 17.1159 10.7278 17.8266 10.5322C18.5373 10.3366 19.282 10.2798 20.0162 10.3653C20.7504 10.4507 21.459 10.6767 22.0997 11.0296C22.7403 11.3825 23.2997 11.8551 23.7446 12.4192C24.1894 12.9833 24.5105 13.6272 24.6886 14.3124C24.8667 14.9977 24.8982 15.7102 24.7812 16.4073C24.6641 17.1045 24.401 17.7719 24.0075 18.3698C23.2505 19.5198 22.056 20.3451 20.6749 20.6722C19.2938 20.9992 17.8337 20.8027 16.6013 20.1237C15.3689 19.4448 14.4601 18.3364 14.0658 17.0313C13.6715 15.7262 13.8225 14.3261 14.487 13.125ZM4.125 13.125H11.4675C10.9788 14.4573 10.8725 15.8903 11.1597 17.275C11.447 18.6598 12.1172 19.946 13.101 21H12.375C10.9572 20.9998 9.57399 21.4179 8.41468 22.197C7.25538 22.976 6.37664 24.0781 5.89875 25.3522C4.97567 24.9983 4.11138 24.5182 3.333 23.9269C1.265 22.3387 0 19.992 0 17.0625C0 16.0182 0.434597 15.0167 1.20818 14.2783C1.98177 13.5398 3.03098 13.125 4.125 13.125ZM26.125 21C27.5424 21 28.9252 21.4181 30.084 22.1972C31.2429 22.9763 32.1211 24.0783 32.5985 25.3522C33.5335 24.9874 34.3997 24.5122 35.167 23.9269C37.235 22.3387 38.5 19.992 38.5 17.0625C38.5 16.0182 38.0654 15.0167 37.2918 14.2783C36.5182 13.5398 35.469 13.125 34.375 13.125H27.0325C27.335 13.9466 27.5 14.8313 27.5 15.75C27.5025 17.6876 26.7542 19.5575 25.399 21H26.125ZM29.9393 26.061C30.14 26.523 30.25 27.0322 30.25 27.5625C30.25 30.492 28.9878 32.8387 26.917 34.4269C24.8792 35.9888 22.1458 36.75 19.25 36.75C16.3542 36.75 13.6207 35.9888 11.583 34.4269C9.515 32.8387 8.25 30.492 8.25 27.5625C8.24855 27.045 8.35425 26.5324 8.56104 26.054C8.76783 25.5757 9.07162 25.1411 9.45495 24.7752C9.83828 24.4093 10.2936 24.1193 10.7947 23.9219C11.2958 23.7245 11.8329 23.6236 12.375 23.625H26.125C26.942 23.6248 27.7407 23.8562 28.4198 24.2899C29.0988 24.7236 29.6277 25.34 29.9393 26.061Z" fill="#ED1B24"/>
</svg>
